<svg xmlns="http://www.w3.org/2000/svg" width="183.703" height="177.92" viewBox="0 0 183.703 177.92">
  <g id="sp2" transform="translate(-102 -218)">
    <g id="juice" transform="translate(102 218)">
      <path id="Path_1520" data-name="Path 1520" d="M171.611,85.805a85.8,85.8,0,0,1-46.7,76.4q-3.677,1.886-7.554,3.422a85.254,85.254,0,0,1-26.278,5.824q-2.616.162-5.271.161c-.735,0-1.471-.01-2.2-.028h0a85.756,85.756,0,0,1-18.324-2.444h0a85.509,85.509,0,0,1-11.018-3.513q-3.872-1.534-7.554-3.422A85.819,85.819,0,1,1,132.459,13.781q3.478,2.254,6.714,4.83A85.651,85.651,0,0,1,171.611,85.805Z" transform="translate(0 0)" fill="#ffd9b1" opacity="0.8"/>
      <path id="Path_1521" data-name="Path 1521" d="M211.564,156.494l-6.08,109.75q-3.677,1.886-7.554,3.422a86.266,86.266,0,0,1-52.079,3.513h0a85.518,85.518,0,0,1-11.018-3.513q-3.872-1.534-7.554-3.422L121.2,156.494Z" transform="translate(-80.576 -104.041)" fill="#49d3dd"/>
      <path id="Path_1522" data-name="Path 1522" d="M145.851,273.179h0a85.518,85.518,0,0,1-11.018-3.513q-3.872-1.534-7.554-3.422L121.2,156.494h21.224l.98,33.352,1.706,58.068Z" transform="translate(-80.576 -104.041)" fill="#1abec6"/>
      <path id="Path_1523" data-name="Path 1523" d="M328.628,6.549,305,18.611,279.856,31.447l-3.443,21.007-19.511,119q-2.617.162-5.271.161c-.735,0-1.471-.01-2.2-.028L268.957,52.453,273.2,26.586l25.087-12.8L325.287,0Z" transform="translate(-165.825 0)" fill="#f0f0f0"/>
      <path id="Path_1524" data-name="Path 1524" d="M276.413,156.494l-19.511,119q-2.616.163-5.271.161c-.735,0-1.471-.01-2.2-.028l19.529-119.129Z" transform="translate(-165.825 -104.041)" fill="#70e1ea"/>
      <path id="Path_1525" data-name="Path 1525" d="M220.619,256l-4.42,79.82a86.266,86.266,0,0,1-52.079,3.513h0A85.481,85.481,0,0,1,153.1,335.82L148.679,256Z" transform="translate(-98.845 -170.195)" fill="#fcbd7f"/>
      <path id="Path_1526" data-name="Path 1526" d="M164.117,339.333A85.481,85.481,0,0,1,153.1,335.82L148.679,256h12.993l1.706,58.068Z" transform="translate(-98.845 -170.195)" fill="#fe958f"/>
      <g id="Group_2127" data-name="Group 2127" transform="translate(66.837 93.154)">
        <ellipse id="Ellipse_34" data-name="Ellipse 34" cx="4.99" cy="4.99" rx="4.99" ry="4.99" transform="translate(24.954 23.64)" fill="#fff" opacity="0.543"/>
        <ellipse id="Ellipse_35" data-name="Ellipse 35" cx="2.495" cy="2.495" rx="2.495" ry="2.495" transform="translate(13.976 39.661)" fill="#fff" opacity="0.543"/>
        <ellipse id="Ellipse_36" data-name="Ellipse 36" cx="2.495" cy="2.495" rx="2.495" ry="2.495" transform="translate(28.762 60.899)" fill="#fff" opacity="0.543"/>
        <ellipse id="Ellipse_37" data-name="Ellipse 37" cx="2.495" cy="2.495" rx="2.495" ry="2.495" transform="translate(39.794 0.656)" fill="#fff" opacity="0.543"/>
        <ellipse id="Ellipse_38" data-name="Ellipse 38" cx="4.99" cy="4.99" rx="4.99" ry="4.99" fill="#fff" opacity="0.543"/>
      </g>
    </g>
    <g id="mango" transform="translate(199.918 286.158) rotate(-5)">
      <path id="Path_1562" data-name="Path 1562" d="M361.987,60.52l-3.643-3.075,1.821,1.537-1.828-1.529c.209-.252,5.064-6.244.657-12.158l3.822-2.848a13.469,13.469,0,0,1,2.105,12.529A17.14,17.14,0,0,1,361.987,60.52Z" transform="translate(-301.509 0)" fill="#c27b48"/>
      <path id="Path_1563" data-name="Path 1563" d="M66.467,118.69a29.257,29.257,0,0,1-6.191,17.973,46.129,46.129,0,0,1-11.267,10.144,44.218,44.218,0,0,1-13.46,5.855,40.159,40.159,0,0,1-9.257,1.095,34.6,34.6,0,0,1-17.269-4.413,28.982,28.982,0,0,1-3.688-2.514c-3.5-2.807-6.6-7.462-4.811-12.106a12.383,12.383,0,0,1,3.5-4.538c5.223-4.834,8.126-8.854,10.018-13.876,2.517-6.682,5.654-11.69,9.586-15.311a25.743,25.743,0,0,1,17.091-6.745,27.451,27.451,0,0,1,13.81,2.952,21.414,21.414,0,0,1,5.515,4.176c.272.283.532.574.785.874a22.262,22.262,0,0,1,3.4,5.517A27.315,27.315,0,0,1,66.467,118.69Z" transform="translate(0 -43.576)" fill="#ffb13b"/>
      <path id="Path_1564" data-name="Path 1564" d="M114.338,156.6a29.257,29.257,0,0,1-6.191,17.973A46.129,46.129,0,0,1,96.88,184.72a44.22,44.22,0,0,1-13.46,5.855,40.161,40.161,0,0,1-9.257,1.095,34.6,34.6,0,0,1-17.269-4.413L107.916,139.3l.785.874a22.262,22.262,0,0,1,3.4,5.517A27.316,27.316,0,0,1,114.338,156.6Z" transform="translate(-47.871 -81.489)" fill="#ff9500"/>
      <path id="Path_1565" data-name="Path 1565" d="M409.291,62.02c-5.734,7.534-12.888,7.952-19.359.059C396.019,54.549,402.813,54.226,409.291,62.02Z" transform="translate(-328.093 -11.658)" fill="#11a892"/>
      <path id="Path_1566" data-name="Path 1566" d="M409.291,92.357c-5.734,7.534-12.888,7.952-19.359.059Z" transform="translate(-328.093 -41.995)" fill="#0f9887"/>
    </g>
  </g>
</svg>
