<svg xmlns="http://www.w3.org/2000/svg" width="181.116" height="176.116" viewBox="0 0 181.116 176.116">
  <g id="sp3" transform="translate(-102 -197)">
    <g id="juice" transform="translate(102 197)">
      <path id="Path_1520" data-name="Path 1520" d="M175.152,87.576a87.569,87.569,0,0,1-47.666,77.975q-3.753,1.925-7.71,3.492a87.014,87.014,0,0,1-26.82,5.945q-2.67.166-5.38.164c-.751,0-1.5-.011-2.248-.029h0a87.527,87.527,0,0,1-18.7-2.495h0a87.271,87.271,0,0,1-11.245-3.585q-3.952-1.566-7.71-3.492A87.589,87.589,0,1,1,135.192,14.066q3.549,2.3,6.852,4.929A87.419,87.419,0,0,1,175.152,87.576Z" transform="translate(0 0)" fill="#cbd8ff" opacity="0.8"/>
      <path id="Path_1521" data-name="Path 1521" d="M213.428,156.494l-6.205,112.015q-3.753,1.925-7.71,3.492a88.047,88.047,0,0,1-53.154,3.585h0A87.287,87.287,0,0,1,135.111,272q-3.952-1.566-7.71-3.492l-6.2-112.015Z" transform="translate(-79.738 -102.958)" fill="#49d3dd"/>
      <path id="Path_1522" data-name="Path 1522" d="M146.36,275.587h0A87.287,87.287,0,0,1,135.111,272q-3.952-1.566-7.71-3.492l-6.2-112.015h21.662l1,34.04L145.6,249.8Z" transform="translate(-79.738 -102.958)" fill="#1abec6"/>
      <path id="Path_1523" data-name="Path 1523" d="M330.262,6.685,306.145,19,280.484,32.1l-3.514,21.44L257.056,174.988q-2.671.166-5.38.164c-.751,0-1.5-.011-2.248-.029L269.36,53.536l4.329-26.4,25.6-13.068L326.852,0Z" transform="translate(-164.1 0)" fill="#f0f0f0"/>
      <path id="Path_1524" data-name="Path 1524" d="M276.97,156.494,257.056,277.946q-2.67.166-5.38.165c-.751,0-1.5-.011-2.248-.029L269.36,156.494Z" transform="translate(-164.1 -102.958)" fill="#70e1ea"/>
      <path id="Path_1525" data-name="Path 1525" d="M222.1,256l-4.511,81.467a88.046,88.046,0,0,1-53.153,3.585h0a87.246,87.246,0,0,1-11.245-3.585L148.679,256Z" transform="translate(-97.817 -168.424)" fill="#99b0fb"/>
      <path id="Path_1526" data-name="Path 1526" d="M164.435,341.052a87.246,87.246,0,0,1-11.245-3.585L148.679,256h13.262l1.741,59.266Z" transform="translate(-97.817 -168.424)" fill="#ab87eb"/>
      <g id="Group_2127" data-name="Group 2127" transform="translate(68.217 95.076)">
        <ellipse id="Ellipse_34" data-name="Ellipse 34" cx="5.093" cy="5.093" rx="5.093" ry="5.093" transform="translate(25.469 24.128)" fill="#ced9ff"/>
        <ellipse id="Ellipse_35" data-name="Ellipse 35" cx="2.547" cy="2.547" rx="2.547" ry="2.547" transform="translate(14.264 40.479)" fill="#ced9ff"/>
        <ellipse id="Ellipse_36" data-name="Ellipse 36" cx="2.547" cy="2.547" rx="2.547" ry="2.547" transform="translate(29.355 62.155)" fill="#ced9ff"/>
        <ellipse id="Ellipse_37" data-name="Ellipse 37" cx="2.547" cy="2.547" rx="2.547" ry="2.547" transform="translate(40.615 0.67)" fill="#ced9ff"/>
        <ellipse id="Ellipse_38" data-name="Ellipse 38" cx="5.093" cy="5.093" rx="5.093" ry="5.093" fill="#ced9ff"/>
      </g>
    </g>
    <g id="blueberry_1_" data-name="blueberry (1)" transform="translate(226.687 294.225) rotate(20)">
      <path id="Path_1577" data-name="Path 1577" d="M17.381,120.5a17.381,17.381,0,1,0,0,34.762,1.924,1.924,0,0,0,1.36-3.285l12.736-12.736a1.924,1.924,0,0,0,3.285-1.36A17.4,17.4,0,0,0,17.381,120.5Z" transform="translate(0 -105.045)" fill="#420868"/>
      <g id="Group_2173" data-name="Group 2173" transform="translate(15.457 15.457)">
        <path id="Path_1578" data-name="Path 1578" d="M258.383,120.5A17.4,17.4,0,0,0,241,137.883a1.924,1.924,0,0,0,3.285,1.36l12.736,12.736a1.924,1.924,0,0,0,1.361,3.285,17.381,17.381,0,0,0,0-34.762Z" transform="translate(-225.545 -120.502)" fill="#6a269b"/>
        <path id="Path_1579" data-name="Path 1579" d="M137.881,241a17.381,17.381,0,1,0,17.381,17.381A17.4,17.4,0,0,0,137.881,241Z" transform="translate(-120.5 -225.545)" fill="#6a269b"/>
      </g>
      <path id="Path_1580" data-name="Path 1580" d="M256,241h0v34.762h0A17.381,17.381,0,1,0,256,241Z" transform="translate(-223.162 -210.088)" fill="#420868"/>
      <path id="Path_1581" data-name="Path 1581" d="M235.792,315.752a2.838,2.838,0,0,0-5.129-1.317,2.858,2.858,0,1,0,1.753,5.4,4.2,4.2,0,0,0,3.376-4.079Z" transform="translate(-199.579 -273.112)" fill="#2d2d30"/>
      <path id="Path_1582" data-name="Path 1582" d="M227.325,1.561A1.924,1.924,0,0,0,225.671.116,25.227,25.227,0,0,0,223.134,0c-3.529,0-8.339.6-11.215,3.473-5.382,5.375-3.427,13.966-3.341,14.329a1.924,1.924,0,0,0,1.494,1.444,17.9,17.9,0,0,0,3.219.269c3.078,0,7.436-.688,10.716-3.964C229.4,10.164,227.412,1.91,227.325,1.561Z" transform="translate(-181.461 0)" fill="#91dc5a"/>
      <path id="Path_1583" data-name="Path 1583" d="M232.562,6.064a1.924,1.924,0,0,0-.512-.9l-17.88,17.88a1.924,1.924,0,0,0,1.139.7,17.9,17.9,0,0,0,3.219.269c3.078,0,7.436-.688,10.716-3.964C234.638,14.668,232.649,6.413,232.562,6.064Z" transform="translate(-186.698 -4.503)" fill="#6dc82a"/>
      <path id="Path_1584" data-name="Path 1584" d="M259.375,315.752A19.466,19.466,0,0,0,256,313.3h0v6.531a4.2,4.2,0,0,0,3.375-4.079Z" transform="translate(-223.162 -273.112)" fill="#1d1d1f"/>
    </g>
  </g>
</svg>
